<?xml version="1.0" encoding="UTF-8" standalone="no"?>
<svg
   viewBox="0 0 24 24"
   version="1.1"
   id="svg2645"
   sodipodi:docname="ShipBase.svg"
   inkscape:version="1.2.2 (b0a8486541, 2022-12-01)"
   xmlns:inkscape="http://www.inkscape.org/namespaces/inkscape"
   xmlns:sodipodi="http://sodipodi.sourceforge.net/DTD/sodipodi-0.dtd"
   xmlns="http://www.w3.org/2000/svg"
   xmlns:svg="http://www.w3.org/2000/svg">
  <defs
     id="defs2649" />
  <sodipodi:namedview
     id="namedview2647"
     pagecolor="#ffffff"
     bordercolor="#000000"
     borderopacity="0.25"
     inkscape:showpageshadow="2"
     inkscape:pageopacity="0.0"
     inkscape:pagecheckerboard="0"
     inkscape:deskcolor="#d1d1d1"
     showgrid="false"
     inkscape:zoom="16"
     inkscape:cx="2.25"
     inkscape:cy="13.84375"
     inkscape:window-width="1920"
     inkscape:window-height="969"
     inkscape:window-x="0"
     inkscape:window-y="32"
     inkscape:window-maximized="1"
     inkscape:current-layer="svg2645" />
  <path
     d="m 21.46349,2.5367519 c -2.801309,-0.567668 -5.849943,0.7503757 -9.213045,4.1130443 a 1.201957,1.2018022 0 0 1 -0.849912,0.3518184 l -2.1128805,-6e-7 A 6.0097852,6.009011 0 0 0 5.0389426,8.7615551 L 2.0515019,11.748612 A 1.2019574,1.2018026 0 0 1 0.35167796,10.049006 L 3.3391185,7.0619501 A 8.4136992,8.4126154 0 0 1 9.2885022,4.597523 l 1.6207818,8.499e-4 C 14.973562,0.67398495 18.9639,-0.785126 22.804652,0.40374804 A 1.201957,1.2018022 0 0 1 23.597619,1.1966137 C 24.785796,5.0360208 23.327347,9.0249934 19.402455,13.09045 l -8.5e-4,1.620572 a 8.4136992,8.4126154 0 0 1 -2.464746,5.948618 l -2.98659,2.986206 c -0.801466,0.801363 -2.165575,0.149566 -2.044888,-0.977272 0.229476,-2.15 0.156383,-3.968578 -0.203978,-5.455732 -0.449605,0.116423 -0.911957,0.225197 -1.390457,0.324624 A 1.201957,1.2018022 0 0 1 9.2145594,17.211142 L 6.7872111,14.784106 A 1.201957,1.2018022 0 0 1 6.4608452,13.68786 c 0.09944,-0.478439 0.2082281,-0.94073 0.3246664,-1.388577 A 10.697418,10.69604 0 0 0 5.9398489,12.130173 1.2022257,1.2020708 0 0 1 6.3172101,9.7558242 11.884952,11.883421 0 0 1 8.6893144,10.37533 1.201957,1.2018022 0 0 1 9.410039,11.853987 c -0.1665822,0.535375 -0.3187167,1.100495 -0.4564027,1.697056 l 1.4949957,1.494802 c 0.595788,-0.138517 1.160979,-0.290633 1.697273,-0.456343 a 1.201957,1.2018022 0 0 1 1.477149,0.718932 c 0.491248,1.290001 0.759819,2.775455 0.809115,4.456364 l 0.805716,-0.805613 a 6.0097852,6.009011 0 0 0 1.760168,-4.248163 l -10e-7,-2.112608 a 1.201957,1.2018022 0 0 1 0.351864,-0.849801 C 20.713869,8.3850928 22.032083,5.3368515 21.46349,2.5367519 Z m -4.113574,4.113044 A 1.201957,1.2018022 0 1 1 19.04974,4.950191 1.201957,1.2018022 0 0 1 17.349916,6.6497959 Z m -2.549735,2.5494082 a 1.2019574,1.2018026 0 1 1 1.699824,-1.699606 1.2019574,1.2018026 0 0 1 -1.699824,1.699606 z"
     id="path2643"
     style="fill:#f99203;fill-opacity:1;stroke-width:1.20188" />
</svg>
